<svg xmlns="http://www.w3.org/2000/svg" width="164.689" height="57" viewBox="0 0 164.689 57"><defs><style>.a{isolation:isolate;}.b{fill:#ee3524;}.b,.c{fill-rule:evenodd;}.c{fill:#231f20;}</style></defs><g class="a"><g transform="translate(-120 -2450)"><g transform="translate(120 2450)"><path class="b" d="M47.207,0V33.29L35.492,17.667H21L47.184,53H59V0Z"/><path class="b" d="M0,53H12V35H0Z"/><path class="c" d="M76,31h2V18H76Z"/><g transform="translate(76 17)"><path class="c" d="M7.1,13.836H5.349V4.77H7.064v1.3A3.063,3.063,0,0,1,9.823,4.506c2.144,0,3.205,1.565,3.205,3.581v5.749H11.277V8.389c0-1.263-.522-2.281-2.088-2.281C7.81,6.108,7.1,7.22,7.1,8.6Z"/><path class="c" d="M17.764,13.836H16.011V4.77h1.715v1.3a3.064,3.064,0,0,1,2.759-1.565c2.143,0,3.206,1.565,3.206,3.581v5.749H21.939V8.389c0-1.263-.522-2.281-2.088-2.281-1.379,0-2.088,1.112-2.088,2.488Z"/><path class="c" d="M33.309,9.294c0-2.092-1.3-3.223-2.8-3.223s-2.8,1.131-2.8,3.223c0,2.111,1.3,3.242,2.8,3.242s2.8-1.131,2.8-3.242m1.79,0a4.591,4.591,0,1,1-9.17,0,4.59,4.59,0,1,1,9.17,0"/><path class="c" d="M41.343,13.836H39.572L35.938,4.77h1.976l2.554,6.993L43.04,4.77h1.882Z"/><path class="c" d="M51.968,9.953V9.539l-2.74.415a1.349,1.349,0,0,0-1.305,1.357,1.366,1.366,0,0,0,1.454,1.319,2.364,2.364,0,0,0,2.591-2.676m-3.114-1.3,2.423-.358c.54-.075.69-.358.69-.679C51.968,6.73,51.391,6,50.03,6A1.911,1.911,0,0,0,48,7.823l-1.678-.4a3.466,3.466,0,0,1,3.672-2.941c2.685,0,3.728,1.546,3.728,3.318v4.543a8.71,8.71,0,0,0,.111,1.489H52.117a6.659,6.659,0,0,1-.093-1.225,3.261,3.261,0,0,1-2.889,1.508,2.806,2.806,0,0,1-3-2.715c0-1.621,1.174-2.525,2.721-2.752"/><path class="c" d="M57.374,10.915a1.918,1.918,0,0,0,2.088,1.7c.987,0,1.529-.565,1.529-1.207,0-.565-.41-1-1.156-1.169L58.306,9.9a2.569,2.569,0,0,1-2.237-2.545,3.069,3.069,0,0,1,3.187-2.865,3.189,3.189,0,0,1,3.412,2.432L61.12,7.5a1.746,1.746,0,0,0-1.864-1.508A1.356,1.356,0,0,0,57.765,7.2c0,.547.335.943,1.025,1.094l1.454.321a2.744,2.744,0,0,1,2.479,2.7,2.987,2.987,0,0,1-3.28,2.809,3.4,3.4,0,0,1-3.654-2.639Z"/><path class="c" d="M66.1.02A1.264,1.264,0,0,1,67.365,1.3a1.258,1.258,0,1,1-2.516,0A1.26,1.26,0,0,1,66.1.02Zm-.858,4.75h1.753V14.892a2.5,2.5,0,0,1-2.48,2.808,2.935,2.935,0,0,1-1.043-.132V16.08a2.816,2.816,0,0,0,.559.057c.913,0,1.211-.49,1.211-1.319Z"/><path class="c" d="M76.8,9.294c0-2.092-1.3-3.223-2.8-3.223S71.2,7.2,71.2,9.294c0,2.111,1.3,3.242,2.8,3.242s2.8-1.131,2.8-3.242m1.79,0a4.592,4.592,0,1,1-9.171,0,4.591,4.591,0,1,1,9.171,0"/><g transform="translate(80.856 4.118)"><path class="c" d="M1.905,9.719H.153V.652H1.868v1.3A3.063,3.063,0,0,1,4.626.388c2.144,0,3.206,1.565,3.206,3.581V9.719H6.081V4.271c0-1.263-.522-2.281-2.088-2.281C2.614,1.99,1.905,3.1,1.905,4.479Z"/></g><path class="c" d="M8.633,36.136l-6-9.481v9.481H.059V22.771H3.265l5.5,8.841V22.771h2.572V36.136Z"/><path class="c" d="M20.749,31.5a2.348,2.348,0,1,0-4.66,0,2.348,2.348,0,1,0,4.66,0m2.48,0a4.81,4.81,0,1,1-9.618,0,4.81,4.81,0,1,1,9.618,0"/><path class="c" d="M30.964,29.35a3.692,3.692,0,0,0-.746-.075c-1.267,0-2.368.622-2.368,2.62v4.241H25.372V26.862h2.4v1.376a2.718,2.718,0,0,1,2.609-1.451,5.607,5.607,0,0,1,.578.038Z"/><g transform="translate(31.993 26.471)"><path class="c" d="M7.023,4.745a2.186,2.186,0,1,0-4.362,0A2.152,2.152,0,0,0,4.861,7.1,2.146,2.146,0,0,0,7.023,4.745ZM2.4,9.57a2.059,2.059,0,0,0,2.143,1.754c1.566,0,2.442-.792,2.442-2.583V8.063A2.9,2.9,0,0,1,4.433,9.25a4.271,4.271,0,0,1-4.269-4.5A4.33,4.33,0,0,1,4.433.222,2.766,2.766,0,0,1,7.042,1.484V.392H9.428V8.666c0,2.545-1.361,4.864-4.809,4.864A4.231,4.231,0,0,1,.164,10.174Z"/></g><path class="c" d="M50.032,30.443a1.852,1.852,0,0,0-2.05-1.828,2,2,0,0,0-2.051,1.828Zm2.312,3.035a4.135,4.135,0,0,1-4.175,2.941,4.673,4.673,0,0,1-4.735-4.958,4.633,4.633,0,0,1,4.51-4.882c2.833,0,4.53,1.828,4.53,4.807,0,.358-.037.735-.037.773H45.875a2.244,2.244,0,0,0,2.312,2.111,2.027,2.027,0,0,0,2.088-1.414Z"/></g></g></g></g></svg>