<svg xmlns="http://www.w3.org/2000/svg" width="100" height="50" viewBox="0 0 100 50"><defs><style>.a{fill:none;opacity:0.8;}.b,.c{stroke:none;}.c{fill:#fff;}</style></defs><g class="a" transform="translate(100 50) rotate(180)"><path class="b" d="M46.464,3.536a5,5,0,0,1,7.071,0L91.464,41.464A5,5,0,0,1,87.929,50H12.071a5,5,0,0,1-3.536-8.536Z"/><path class="c" d="M 50.00000762939453 7.071071624755859 L 12.07106781005859 44.99999237060547 C 12.07107543945313 45 12.07107543945313 45 12.07106018066406 45.00000762939453 L 87.92892456054688 45.00000762939453 C 87.92893218994141 45.00000381469727 87.92893218994141 45 87.92893981933594 45.00000762939453 L 50.00000762939453 7.071071624755859 M 50 2.071063995361328 C 51.27961349487305 2.071063995361328 52.55922317504883 2.559223175048828 53.53554153442383 3.535537719726563 L 91.4644775390625 41.46447372436523 C 94.61430358886719 44.61428833007813 92.38346099853516 50.00000762939453 87.92893981933594 50.00000762939453 L 12.07106018066406 50.00000762939453 C 7.616539001464844 49.9999885559082 5.385704040527344 44.61428833007813 8.5355224609375 41.46447372436523 L 46.46447372436523 3.535537719726563 C 47.4407844543457 2.559223175048828 48.72039031982422 2.071063995361328 50 2.071063995361328 Z"/></g></svg>