<svg xmlns="http://www.w3.org/2000/svg" width="35" height="35.056" viewBox="0 0 35 35.056"><defs><style>.a{fill:#4e0f79;}</style></defs><path class="a" d="M77.646,95.272C67.784,94.979,60.21,87.525,60.231,77.7a17.5,17.5,0,1,1,35,.081C95.2,87.514,87.649,95.057,77.646,95.272ZM63.059,70.57c-.643.927-.928,1.83-.109,2.665.477.486.314.834-.034,1.2a3.729,3.729,0,0,0-1.014,3c.133,1.944,1.129,4.171,3.726,3.722.182-.031.377.02.56-.008.738-.112,1.033.25,1.193.936.5,2.152,1.056,4.293,1.595,6.437a1.983,1.983,0,0,0,1.984,1.619,2.005,2.005,0,0,0,1.715-2.079c.008-.481.025-.964-.005-1.443a.979.979,0,0,1,.592-1.025c.777-.414,1.53-.872,2.294-1.31a1.823,1.823,0,0,0,1.006-1.766c-.036-1.255-.007-2.512-.01-3.769,0-1.469-.421-2.188-1.856-2.118-1.706.083-2.425-.841-3.093-2.069-.051-.093-.127-.172-.18-.265a2.223,2.223,0,0,0-2.13-1.15c-1.363.014-2.729-.046-4.089.02a1.573,1.573,0,0,1-1.662-1.195A5.843,5.843,0,0,0,63.059,70.57ZM94.03,76.761a7.748,7.748,0,0,0-.157-1.626,16.256,16.256,0,0,0-7.605-11.4.665.665,0,0,0-.666-.117c-1.193.46-2.406.869-3.6,1.333a2.488,2.488,0,0,0-1.616,2.03c-.09.55-.132,1.109-.183,1.665a1.5,1.5,0,0,1-1.221,1.469,2.4,2.4,0,0,0-1.824,2.427c-.006.374-.009.748,0,1.122A2.537,2.537,0,0,0,79.2,76.008c1.846.193,3.654.166,4.907-1.561a3.4,3.4,0,0,1,.394-.4,2.323,2.323,0,0,1,3.9.42c.539.794,1.1,1.578,1.592,2.4a2.716,2.716,0,0,0,2.655,1.425C94.2,78.223,94.056,78.556,94.03,76.761Zm-28.918-9.4a1.791,1.791,0,0,0,.416-.026,18.6,18.6,0,0,1,7.888-1.442A1.378,1.378,0,0,0,74.9,64.683a.539.539,0,0,1,.652-.518c.267.012.535,0,.8,0,1.5,0,1.924-.463,1.955-1.968.013-.629-.168-.809-.807-.817a15.625,15.625,0,0,0-8.28,2.357A13.336,13.336,0,0,0,65.113,67.357ZM80.544,93.343c-.034.374.05.529.494.425A17.32,17.32,0,0,0,86,91.846a17.042,17.042,0,0,0,4.623-4c.115-.143.295-.3.207-.483-.1-.206-.332-.09-.5-.1-.426-.017-.853.009-1.279-.008a3.235,3.235,0,0,0-3.4,2.119,1.954,1.954,0,0,1-1.924,1.277A3.139,3.139,0,0,0,80.544,93.343Zm.066-3.821c-.464-.057-.7.108-.7.608,0,.424.138.639.594.642s.681-.151.675-.645C81.173,89.712,81.092,89.442,80.61,89.522ZM67.58,70.909c-.5-.076-.542.229-.55.625-.01.454.235.5.6.515.494.023.554-.236.557-.639C68.191,70.96,67.962,70.864,67.58,70.909Zm2.238.007c-.465-.114-.526.179-.535.592-.009.431.181.531.573.542.468.013.585-.186.583-.616S70.266,70.853,69.818,70.915Zm15.841,4.523c-.074.445.11.618.57.609.4-.008.573-.117.574-.547s-.121-.63-.588-.614C85.823,74.9,85.589,74.993,85.659,75.439Zm-1.746,13.51c.063-.426-.131-.558-.541-.566-.448-.008-.61.144-.6.6.007.411.143.558.558.561C83.767,89.543,83.989,89.409,83.912,88.948Z" transform="translate(-60.231 -60.216)"/></svg>